<?xml version="1.0" encoding="UTF-8" standalone="no"?>
<svg
   width="31.819778"
   height="20.971733"
   viewBox="0 0 8.4193145 5.5489895"
   version="1.1"
   id="svg3"
   sodipodi:docname="easy-shop.svg"
   inkscape:version="1.3.2 (091e20e, 2023-11-25, custom)"
   xmlns:inkscape="http://www.inkscape.org/namespaces/inkscape"
   xmlns:sodipodi="http://sodipodi.sourceforge.net/DTD/sodipodi-0.dtd"
   xmlns:xlink="http://www.w3.org/1999/xlink"
   xmlns="http://www.w3.org/2000/svg"
   xmlns:svg="http://www.w3.org/2000/svg">
  <sodipodi:namedview
     id="namedview3"
     pagecolor="#ffffff"
     bordercolor="#000000"
     borderopacity="0.25"
     inkscape:showpageshadow="2"
     inkscape:pageopacity="0.0"
     inkscape:pagecheckerboard="0"
     inkscape:deskcolor="#d1d1d1"
     inkscape:zoom="25.96875"
     inkscape:cx="19.696751"
     inkscape:cy="8.9530686"
     inkscape:window-width="1920"
     inkscape:window-height="1027"
     inkscape:window-x="1912"
     inkscape:window-y="-8"
     inkscape:window-maximized="1"
     inkscape:current-layer="svg3" />
  <defs
     id="defs2">
    <linearGradient
       id="A"
       gradientUnits="userSpaceOnUse">
      <stop
         offset="0"
         stop-color="#7255f3"
         id="stop1" />
      <stop
         offset="1"
         stop-color="#5269f4"
         id="stop2" />
    </linearGradient>
    <linearGradient
       xlink:href="#A"
       id="B"
       x1="0.052999999"
       y1="5.9790001"
       x2="4.6440001"
       y2="5.9790001"
       gradientTransform="matrix(0.96675027,0,0,1.0343933,-0.0673081,-1.7614668)" />
    <linearGradient
       xlink:href="#A"
       id="C"
       x1="0.024"
       y1="3.763"
       x2="8.7340002"
       y2="3.763"
       gradientTransform="translate(-0.02389842,-1.7028985)" />
  </defs>
  <path
     style="font-weight:bold;font-size:4.528px;font-family:'Humanst521 BT';fill:url(#C);paint-order:stroke fill markers"
     d="M 0,3.0931015 V 2.2351742e-8 H 2.0694374 V 0.57042188 H 0.7738281 V 1.2005391 h 1.238125 V 1.7753828 H 0.7738281 V 2.5138359 H 2.1070234 V 3.0931015 Z M 3.636992,2.5912187 V 2.0782812 Q 3.2987186,2.1976718 3.1837498,2.2883203 3.070992,2.3767578 3.070992,2.5005703 q 0,0.1017031 0.061906,0.1613984 0.061906,0.059695 0.1702422,0.059695 0.072961,0 0.1569765,-0.033164 0.084016,-0.033164 0.176875,-0.097281 z m 0.033164,0.3073203 q -0.1481328,0.1193906 -0.3095313,0.176875 -0.1591875,0.057484 -0.3426953,0.057484 -0.3028984,0 -0.457664,-0.1459219 -0.1547656,-0.1481328 -0.1547656,-0.4377656 0,-0.2520469 0.2277265,-0.4134453 0.2299375,-0.1636094 1.0037656,-0.3869141 0.00221,-0.011055 0.00221,-0.02432 0.00221,-0.013266 0.00221,-0.035375 0,-0.1503437 -0.1017031,-0.2210937 -0.099492,-0.072961 -0.3095313,-0.072961 -0.176875,0 -0.3625937,0.086227 Q 2.681867,1.5675547 2.5049921,1.731164 l 0.00884,-0.5217812 Q 2.7039764,1.0811484 2.931703,1.0192422 3.1616405,0.955125 3.4468514,0.955125 q 0.4532422,0 0.6566484,0.1746641 0.2034063,0.174664 0.2034063,0.5593671 v 0.8335234 q 0,0.072961 0.019898,0.1017032 0.019898,0.028742 0.066328,0.028742 0.042008,0 0.086227,-0.011055 0.04643,-0.011055 0.1216015,-0.042008 v 0.3670156 q -0.1790859,0.086226 -0.3183749,0.1260234 -0.1370782,0.039797 -0.2608907,0.039797 -0.1569765,0 -0.247625,-0.057484 -0.088437,-0.059695 -0.103914,-0.176875 z m 1.1187342,0.081805 V 2.5138359 q 0.1989844,0.090648 0.3670157,0.1415 0.1702421,0.048641 0.2852109,0.048641 0.1569766,0 0.2365703,-0.039797 0.079594,-0.039797 0.079594,-0.1193906 0,-0.066328 -0.059695,-0.1171797 -0.059695,-0.053062 -0.2719453,-0.1415 -0.022109,-0.00884 -0.07075,-0.028742 -0.6035859,-0.2498359 -0.6035859,-0.6411718 0,-0.2984766 0.2210938,-0.4797734 0.2233046,-0.1812969 0.5903203,-0.1812969 0.1967734,0 0.3714374,0.0420078 0.176875,0.0420078 0.3426953,0.12602339 v 0.462086 Q 6.0690231,1.4746953 5.9054138,1.4238437 5.7440153,1.3729922 5.6069372,1.3729922 q -0.1193906,0 -0.1835078,0.042008 -0.064117,0.042008 -0.064117,0.1193906 0,0.1017031 0.3581719,0.2498359 0.1459218,0.057484 0.2299375,0.09507 0.2299375,0.099492 0.3338515,0.2387813 0.106125,0.139289 0.106125,0.3449062 0,0.3250078 -0.2255156,0.4996719 -0.2233047,0.1746641 -0.63675,0.1746641 -0.2056172,0 -0.3913359,-0.039797 Q 4.9502888,3.0599374 4.7888903,2.9803437 Z M 7.2960934,4.1211874 H 6.60407 L 7.2253434,2.757039 6.427195,0.99713281 h 0.7074999 l 0.4245,1.02366399 0.4532422,-1.02366399 h 0.6964453 z"
     id="text2"
     transform="scale(0.96675027,1.0343933)"
     aria-label="Easy" />
  <path
     style="font-weight:bold;font-size:2.358px;font-family:'Humanst521 BT';fill:url(#B);paint-order:stroke markers fill"
     d="M 0.02782711,4.862993 V 4.4926024 q 0.17586736,0.1167148 0.2960805,0.1631624 0.12132621,0.046447 0.23486084,0.046447 0.11464771,0 0.17364119,-0.03692 0.0589935,-0.038111 0.0589935,-0.1119508 0,-0.059548 -0.0367318,-0.095277 Q 0.71793954,4.421144 0.58325631,4.371124 0.25044402,4.2460724 0.12466547,4.116257 0,3.9852507 0,3.7827863 0,3.5696034 0.16251034,3.4362151 0.32613377,3.3028269 0.58770865,3.3028269 q 0.13245705,0 0.26602721,0.034538 Q 0.987306,3.3719029 1.1175369,3.4385968 V 3.7804044 Q 0.9605919,3.6958458 0.8359265,3.655353 0.71126104,3.6148601 0.60885725,3.6148601 q -0.11130846,0 -0.17030194,0.034538 -0.0578804,0.034538 -0.0578804,0.09885 0,0.052402 0.052315,0.09885 0.0523149,0.045257 0.158058,0.086941 0.0222616,0.00953 0.0678982,0.027392 0.22261691,0.088131 0.31945527,0.1512528 0.10129072,0.066695 0.15249262,0.1714991 0.052315,0.1048052 0.052315,0.2453392 0,0.2310474 -0.1636235,0.3632448 -0.16251035,0.1321972 -0.45191233,0.1321972 -0.144701,0 -0.28049732,-0.040492 Q 0.15249259,4.9439788 0.02782711,4.862993 Z M 1.3846771,4.9951903 V 3.3290281 H 1.7174894 V 4.007879 q 0.077916,-0.086941 0.1625104,-0.1250514 0.084595,-0.039302 0.1947898,-0.039302 0.1736412,0 0.2660272,0.1131418 0.092386,0.1119509 0.092386,0.3239429 v 0.71458 H 2.1003905 V 4.32944 q 0,-0.1202876 -0.036732,-0.1762631 -0.035619,-0.055975 -0.1113084,-0.055975 -0.070124,0 -0.1291178,0.045257 -0.058994,0.045257 -0.1057431,0.1333884 v 0.719343 z M 2.9474479,4.4318632 q 0,0.1441069 0.064559,0.2310474 0.065672,0.085749 0.1725281,0.085749 0.1079692,0 0.1725281,-0.085749 0.064559,-0.086941 0.064559,-0.2310474 0,-0.1441071 -0.065672,-0.2310476 -0.064559,-0.088131 -0.171415,-0.088131 -0.105743,0 -0.171415,0.088131 -0.065672,0.086941 -0.065672,0.2310476 z m -0.341717,0 q 0,-0.2608217 0.1602842,-0.4239842 0.1613973,-0.1643533 0.4185198,-0.1643533 0.2582356,0 0.4196329,0.1643533 0.1625103,0.1643534 0.1625103,0.4239842 0,0.2584397 -0.1613972,0.4216021 -0.1613973,0.1631624 -0.420746,0.1631624 -0.2571225,0 -0.4185198,-0.1619715 Q 2.6057309,4.6914938 2.6057309,4.4318632 Z M 4.2731318,4.1853331 v 0.4835323 q 0.042297,0.034538 0.087934,0.052402 0.046749,0.017865 0.093499,0.017865 0.1224393,0 0.1925636,-0.082176 0.070124,-0.083368 0.070124,-0.2274747 0,-0.141725 -0.070124,-0.2274746 -0.069012,-0.086941 -0.1825458,-0.086941 -0.048976,0 -0.096838,0.017865 -0.047863,0.016673 -0.094613,0.052402 z M 3.9425456,5.5489897 V 3.8661541 h 0.3183422 v 0.092896 q 0.066785,-0.060739 0.1402487,-0.089323 0.073463,-0.028583 0.1636234,-0.028583 0.2215038,0 0.3595263,0.1643534 0.1391356,0.1631624 0.1391356,0.4263661 0,0.2620126 -0.1391356,0.425175 Q 4.7862637,5.01901 4.5647599,5.01901 4.4779389,5.01901 4.4055888,4.992809 4.3332378,4.966608 4.2731318,4.911823 V 5.54899 Z"
     id="text3"
     aria-label="Shop" />
</svg>
